{
	"asset":{
		"generator":"Khronos glTF Blender I/O v4.1.62",
		"version":"2.0"
	},
	"extensionsUsed":[
		"KHR_materials_specular",
		"KHR_materials_ior"
	],
	"scene":0,
	"scenes":[
		{
			"name":"Scene",
			"nodes":[
				0,
				1
			]
		}
	],
	"nodes":[
		{
			"mesh":0,
			"name":"Eyes"
		},
		{
			"mesh":1,
			"name":"GregBase (Retopo)"
		}
	],
	"materials":[
		{
			"doubleSided":true,
			"extensions":{
				"KHR_materials_specular":{
					"specularFactor":0.7943881750106812
				},
				"KHR_materials_ior":{
					"ior":1.4500000476837158
				}
			},
			"name":"Material",
			"normalTexture":{
				"index":0
			},
			"pbrMetallicRoughness":{
				"baseColorTexture":{
					"index":1
				},
				"metallicFactor":0,
				"roughnessFactor":0.4466268718242645
			}
		},
		{
			"doubleSided":true,
			"name":"GregUVTexture",
			"normalTexture":{
				"index":2
			},
			"pbrMetallicRoughness":{
				"baseColorTexture":{
					"index":3
				},
				"metallicFactor":0,
				"roughnessFactor":0.5
			}
		}
	],
	"meshes":[
		{
			"name":"Sphere",
			"primitives":[
				{
					"attributes":{
						"POSITION":0,
						"NORMAL":1,
						"TEXCOORD_0":2
					},
					"indices":3,
					"material":0
				}
			]
		},
		{
			"name":"Mesh",
			"primitives":[
				{
					"attributes":{
						"POSITION":4,
						"NORMAL":5,
						"TEXCOORD_0":6
					},
					"indices":7,
					"material":1
				}
			]
		}
	],
	"textures":[
		{
			"sampler":0,
			"source":0
		},
		{
			"sampler":0,
			"source":1
		},
		{
			"sampler":0,
			"source":2
		},
		{
			"sampler":0,
			"source":3
		}
	],
	"images":[
		{
			"mimeType":"image/png",
			"name":"greg-eye-normal",
			"uri":"greg-eye-normal.png"
		},
		{
			"mimeType":"image/png",
			"name":"greg-eye-color",
			"uri":"greg-eye-color.png"
		},
		{
			"mimeType":"image/png",
			"name":"greg-normal",
			"uri":"greg-normal.png"
		},
		{
			"mimeType":"image/png",
			"name":"greg_basic_texture",
			"uri":"greg_basic_texture.png"
		}
	],
	"accessors":[
		{
			"bufferView":0,
			"componentType":5126,
			"count":1184,
			"max":[
				0.43649935722351074,
				2.2375144958496094,
				0.8492280840873718
			],
			"min":[
				-0.43649935722351074,
				2.039856433868408,
				0.7518180012702942
			],
			"type":"VEC3"
		},
		{
			"bufferView":1,
			"componentType":5126,
			"count":1184,
			"type":"VEC3"
		},
		{
			"bufferView":2,
			"componentType":5126,
			"count":1184,
			"type":"VEC2"
		},
		{
			"bufferView":3,
			"componentType":5123,
			"count":5760,
			"type":"SCALAR"
		},
		{
			"bufferView":4,
			"componentType":5126,
			"count":25396,
			"max":[
				1.534030556678772,
				2.8326122760772705,
				1.1365066766738892
			],
			"min":[
				-1.534030556678772,
				0.014142232947051525,
				-1.053195834159851
			],
			"type":"VEC3"
		},
		{
			"bufferView":5,
			"componentType":5126,
			"count":25396,
			"type":"VEC3"
		},
		{
			"bufferView":6,
			"componentType":5126,
			"count":25396,
			"type":"VEC2"
		},
		{
			"bufferView":7,
			"componentType":5123,
			"count":124944,
			"type":"SCALAR"
		}
	],
	"bufferViews":[
		{
			"buffer":0,
			"byteLength":14208,
			"byteOffset":0,
			"target":34962
		},
		{
			"buffer":0,
			"byteLength":14208,
			"byteOffset":14208,
			"target":34962
		},
		{
			"buffer":0,
			"byteLength":9472,
			"byteOffset":28416,
			"target":34962
		},
		{
			"buffer":0,
			"byteLength":11520,
			"byteOffset":37888,
			"target":34963
		},
		{
			"buffer":0,
			"byteLength":304752,
			"byteOffset":49408,
			"target":34962
		},
		{
			"buffer":0,
			"byteLength":304752,
			"byteOffset":354160,
			"target":34962
		},
		{
			"buffer":0,
			"byteLength":203168,
			"byteOffset":658912,
			"target":34962
		},
		{
			"buffer":0,
			"byteLength":249888,
			"byteOffset":862080,
			"target":34963
		}
	],
	"samplers":[
		{
			"magFilter":9729,
			"minFilter":9987
		}
	],
	"buffers":[
		{
			"byteLength":1111968,
			"uri":"greg_basic_export_applied_uv.bin"
		}
	]
}
